<?xml version="1.0" encoding="utf-8"?>
<!-- Generator: Adobe Illustrator 16.0.0, SVG Export Plug-In . SVG Version: 6.00 Build 0)  -->
<!DOCTYPE svg PUBLIC "-//W3C//DTD SVG 1.1//EN" "http://www.w3.org/Graphics/SVG/1.1/DTD/svg11.dtd">
<svg version="1.1" id="Layer_1" xmlns="http://www.w3.org/2000/svg" xmlns:xlink="http://www.w3.org/1999/xlink" x="0px" y="0px"
	 width="200.68px" height="200.68px" viewBox="0 0 200.68 200.68" enable-background="new 0 0 200.68 200.68" xml:space="preserve">
<g id="XMLID_2567_">
	<polygon id="XMLID_3625_" fill="#A9838B" points="72.042,103.854 64.402,148.997 184.905,90.967 	"/>
	<polygon id="XMLID_3623_" fill="#F7BAC9" points="72.042,103.854 95.585,83.833 184.905,90.967 	"/>
	<path id="XMLID_2623_" fill="#536E82" d="M113.123,65.149l4.928,3.519c5.827,4.161,13.781,3.627,19.002-1.273l8.573-8.048
		l2.371,2.703l-11.699,12.067c-4.649,4.797-11.911,5.944-17.814,2.815l-7.359-3.902L113.123,65.149z"/>
	<path id="XMLID_2938_" fill="#22346B" d="M114.076,65.691c0,0,6.153,10.605-0.78,20.896l-5.058,7.368l-7.69,0.446
		c0,0,9.091-25.456,11.254-27.358C113.97,65.141,114.076,65.691,114.076,65.691z"/>
	<path id="XMLID_2537_" fill="#0C2344" d="M68.37,98.82c0,0,2.85-2.408,10.843-2.111c7.993,0.294,6.011-9.898,6.011-9.898
		L68.37,98.82z"/>
	<path id="XMLID_2625_" fill="#FCFCF7" d="M113.053,67.209c0,0,5.996,11.153-9.968,26.7l-25.924,5.049l31.948-35.069L113.053,67.209
		z"/>
	<path id="XMLID_3645_" fill="#536E82" d="M109.109,63.89c0,0,1.026,19.069-20.579,27.749c-12.111,4.865-21.315,7.715-23.724,11.611
		c0,0,0.101-9.646,9.647-14.804C84.002,83.289,96.594,72.064,109.109,63.89z"/>
	<path id="XMLID_2621_" fill="#FAC1C0" d="M109.109,63.89c0,0,1.226,3.586,3.943,3.32l1.023-1.518l7.727-1.637
		c0,0,2.021-7.912-2.624-13.47c0,0-7.224,0.037-9.822,3.891C106.758,58.331,109.109,63.89,109.109,63.89z"/>
	<polygon id="XMLID_3357_" fill="#DAECED" points="109.109,63.89 113.053,67.209 110.813,68.888 109.038,65.946 	"/>
	<path id="XMLID_2624_" fill="#7B7A8D" d="M110.157,58.592l2.825,1.48l-1.475-7.559c0,0,8.116,0.359,10.372-3.64
		c2.253-4.001-9.521-1.181-13.439,0.902c-3.919,2.083-6.453,5.214-3.579,10.59c2.871,5.375,4.248,3.525,4.248,3.525
		S108.901,60.461,110.157,58.592z"/>
	<path id="XMLID_2622_" fill="#FAC1C0" d="M110.157,58.592c0.211,1.082-0.493,2.127-1.572,2.338c-1.082,0.21-2.126-0.496-2.34-1.575
		c-0.209-1.081,0.496-2.127,1.577-2.338C108.901,56.807,109.946,57.512,110.157,58.592z"/>
	<path id="XMLID_2626_" fill="#536E82" d="M77.161,98.958c-6.019,7.016-3.306,12.818,7.39,11.525
		c10.696-1.292,34.409-6.7,34.409-6.7l0,0c-1.125-5.778-6.2-9.935-12.087-9.897l-3.788,0.023L77.161,98.958z"/>
	<path id="XMLID_2627_" fill="#FAC1C0" d="M147.997,62.05l6.522-4.436l-3.655,0.184l5.335-5.788c0,0-8.272,3.921-10.573,7.336
		L147.997,62.05z"/>
	<path id="XMLID_3647_" fill="#536E82" d="M109.109,63.89L92.612,80.85c-3.447,3.543-3.928,9.024-1.147,13.111l7.43,10.931
		l2.931-1.2l-3.496-8.216c-1.727-4.06-0.721-8.772,2.54-11.744C106.021,79.036,112.383,71.313,109.109,63.89z"/>
	<polygon id="XMLID_3367_" fill="#DAECED" points="113.053,67.209 114.634,68.548 114.076,65.691 	"/>
	<polygon id="XMLID_2600_" fill="#7B86C2" points="113.053,67.209 114.246,68.22 114.188,70.638 112.819,70.904 111.734,68.199 	"/>
	<path id="XMLID_2601_" fill="#7B86C2" d="M114.188,70.638c0,0-0.081,4.566,4.978,8.923c5.061,4.356-0.886,13.373-10.097,13.182
		l-1.789-1.205l2.272-2.388c0,0,8.311-0.629,8.339-6.191c0.011-2.669-3.142-2.835-5.071-12.054L114.188,70.638z"/>
	<polygon id="XMLID_3541_" fill="#F7BAC9" points="58.171,115.652 184.905,90.967 20.078,147.605 	"/>
	<path id="XMLID_2628_" fill="#FAC1C0" d="M101.814,103.631l3.249,3.103l-2.68-0.18c0,0-3.632,5.06-9.805,5.866l6.304-7.589
		L101.814,103.631z"/>
</g>
</svg>
