<?xml version="1.0" encoding="utf-8"?>
<!-- Generator: Adobe Illustrator 19.0.0, SVG Export Plug-In . SVG Version: 6.00 Build 0)  -->
<svg version="1.1" id="Layer_1" xmlns="http://www.w3.org/2000/svg" xmlns:xlink="http://www.w3.org/1999/xlink" x="0px" y="0px"
	 viewBox="-223 25 512 512" style="enable-background:new -223 25 512 512;" xml:space="preserve">
<style type="text/css">
	.st0{fill:#40607B;}
</style>
<path class="st0" d="M161.5,233.9H80.1v-81.4c0-8.3-6.7-15-15-15H0.9c-8.3,0-15,6.7-15,15v81.4h-81.4c-8.3,0-15,6.7-15,15v64.3
	c0,8.3,6.7,15,15,15h81.4v81.4c0,8.3,6.7,15,15,15h64.3c8.3,0,15-6.7,15-15v-81.4h81.4c8.3,0,15-6.7,15-15v-64.3
	C176.5,240.6,169.8,233.9,161.5,233.9z M146.5,298.1H65.1c-8.3,0-15,6.7-15,15v81.4H15.9v-81.4c0-8.3-6.7-15-15-15h-81.4v-34.3H0.9
	c8.3,0,15-6.7,15-15v-81.4h34.3v81.4c0,8.3,6.7,15,15,15h81.4V298.1z"/>
<path class="st0" d="M214,100C165.7,51.6,101.4,25,33,25c-68.4,0-132.7,26.6-181,75s-75,112.6-75,181c0,68.4,26.6,132.7,75,181
	s112.6,75,181,75s132.7-26.6,181-75s75-112.6,75-181S262.4,148.3,214,100z M33,507c-124.6,0-226-101.4-226-226S-91.6,55,33,55
	s226,101.4,226,226S157.6,507,33,507z"/>
</svg>
