<?xml version="1.0" encoding="utf-8"?>
<!-- Generator: Adobe Illustrator 19.0.0, SVG Export Plug-In . SVG Version: 6.00 Build 0)  -->
<svg version="1.1" id="Capa_1" xmlns="http://www.w3.org/2000/svg" xmlns:xlink="http://www.w3.org/1999/xlink" x="0px" y="0px"
	 viewBox="-452 254 54 54" style="enable-background:new -452 254 54 54;" xml:space="preserve">
<style type="text/css">
	.st0{fill:#FFFFFF;}
</style>
<g>
	<path class="st0" d="M-409,274.1v-5.6c0-8-7.2-14.5-16-14.5s-16,6.5-16,14.5v5.6c-3.4,0.6-6,3.5-6,7.1v19.5c0,4,3.2,7.2,7.2,7.2
		h29.5c4,0,7.2-3.2,7.2-7.2v-19.5C-403,277.7-405.6,274.7-409,274.1z M-439,268.5c0-6.9,6.3-12.5,14-12.5s14,5.6,14,12.5v5.5h-28
		V268.5z M-405,300.8c0,2.9-2.3,5.2-5.2,5.2h-29.5c-2.9,0-5.2-2.3-5.2-5.2v-19.5c0-2.9,2.3-5.2,5.2-5.2h29.5c2.9,0,5.2,2.3,5.2,5.2
		V300.8z"/>
	<path class="st0" d="M-425,282c-2.2,0-4,1.8-4,4v6c0,2.2,1.8,4,4,4s4-1.8,4-4v-6C-421,283.8-422.8,282-425,282z M-423,292
		c0,1.1-0.9,2-2,2s-2-0.9-2-2v-6c0-1.1,0.9-2,2-2s2,0.9,2,2V292z"/>
</g>
</svg>
